HIERARCHY
ROOT root
{
	OFFSET 0.000000 0.000000 0.000000
	CHANNELS 6 Xposition Yposition Zposition Zrotation Yrotation Xrotation
	JOINT lhip
	{
		OFFSET 0.058581 -0.082280 -0.017664
		CHANNELS 3 Zrotation Yrotation Xrotation
		JOINT lknee
		{
			OFFSET 0.043451 -0.386469 0.008037
			CHANNELS 3 Zrotation Yrotation Xrotation
			JOINT lankle
			{
				OFFSET -0.014790 -0.426874 -0.037428
				CHANNELS 3 Zrotation Yrotation Xrotation
				JOINT ltoe
				{
					OFFSET 0.041054 -0.060286 0.122042
					CHANNELS 3 Zrotation Yrotation Xrotation
					End Site
					{
						OFFSET 0.000000 0.000000 0.000000
					}
				}
			}
		}
	}
	JOINT rhip
	{
		OFFSET -0.060310 -0.090513 -0.013543
		CHANNELS 3 Zrotation Yrotation Xrotation
		JOINT rknee
		{
			OFFSET -0.043257 -0.383688 -0.004843
			CHANNELS 3 Zrotation Yrotation Xrotation
			JOINT rankle
			{
				OFFSET 0.019056 -0.420046 -0.034562
				CHANNELS 3 Zrotation Yrotation Xrotation
				JOINT rtoe
				{
					OFFSET -0.034840 -0.062106 0.130323
					CHANNELS 3 Zrotation Yrotation Xrotation
					End Site
					{
						OFFSET 0.000000 0.000000 0.000000
					}
				}
			}
		}
	}
	JOINT lowerback
	{
		OFFSET 0.004439 0.124404 -0.038385
		CHANNELS 3 Zrotation Yrotation Xrotation
		JOINT upperback
		{
			OFFSET 0.004488 0.137956 0.026820
			CHANNELS 3 Zrotation Yrotation Xrotation
			JOINT chest
			{
				OFFSET -0.002265 0.056032 0.002855
				CHANNELS 3 Zrotation Yrotation Xrotation
				JOINT lowerneck
				{
					OFFSET -0.013390 0.211636 -0.033468
					CHANNELS 3 Zrotation Yrotation Xrotation
					JOINT upperneck
					{
						OFFSET 0.010113 0.088937 0.050410
						CHANNELS 3 Zrotation Yrotation Xrotation
						End Site
						{
							OFFSET 0.000000 0.000000 0.000000
						}
					}
				}
				JOINT lclavicle
				{
					OFFSET 0.071702 0.114000 -0.018898
					CHANNELS 3 Zrotation Yrotation Xrotation
					JOINT lshoulder
					{
						OFFSET 0.122921 0.045205 -0.019046
						CHANNELS 3 Zrotation Yrotation Xrotation
						JOINT lelbow
						{
							OFFSET 0.255332 -0.015649 -0.022946
							CHANNELS 3 Zrotation Yrotation Xrotation
							JOINT lwrist
							{
								OFFSET 0.265709 0.012698 -0.007375
								CHANNELS 3 Zrotation Yrotation Xrotation
								End Site
								{
									OFFSET 0.000000 0.000000 0.000000
								}
							}
						}
					}
				}
				JOINT rclavicle
				{
					OFFSET -0.082954 0.112472 -0.023707
					CHANNELS 3 Zrotation Yrotation Xrotation
					JOINT rshoulder
					{
						OFFSET -0.113228 0.046853 -0.008472
						CHANNELS 3 Zrotation Yrotation Xrotation
						JOINT relbow
						{
							OFFSET -0.260127 -0.014369 -0.031269
							CHANNELS 3 Zrotation Yrotation Xrotation
							JOINT rwrist
							{
								OFFSET -0.269108 0.006794 -0.006027
								CHANNELS 3 Zrotation Yrotation Xrotation
								End Site
								{
									OFFSET 0.000000 0.000000 0.000000
								}
							}
						}
					}
				}
			}
		}
	}
}
MOTION
Frames: 9
Frame Time: 0.033333
0.011714 1.209797 1.022285 1.139015 -0.304875 87.385386 0.217364 3.577140 1.312676 -3.297972 -1.668230 7.045235 3.488220 10.228269 -11.254836 0.000000 -0.000000 0.000000 -2.022312 -2.847084 -1.001521 0.148099 0.941491 11.413309 4.219748 -3.243107 -10.035655 0.000000 -0.000000 0.000000 2.723592 -0.179107 9.011111 0.324181 -1.945510 -0.634235 -0.878026 -1.214300 4.967263 1.008240 3.907611 0.111000 -0.590208 0.221889 6.750795 -27.738554 4.102780 -0.534927 -51.171581 -8.615728 4.396185 16.984396 -32.031243 -4.468166 3.040486 -3.172665 -5.988356 27.422355 -1.125268 1.139309 60.426730 1.307609 15.502537 -15.353383 34.445564 -2.096242 2.184946 3.396613 -2.383254 
0.017082 1.208015 1.022329 1.422494 -0.016451 87.510918 0.221350 3.697095 1.777887 -3.218240 -1.613704 6.119870 3.694798 9.785595 -11.154499 0.000000 -0.000000 0.000000 -2.079641 -3.054020 -0.077590 0.119808 0.863134 9.767552 4.402462 -3.389849 -9.432969 0.000000 -0.000000 0.000000 2.821222 -0.105961 8.542353 -0.041287 -1.835690 -0.540704 -1.179716 -1.384545 4.845963 0.864330 3.592025 -0.016618 -0.380747 0.525413 6.839221 -28.660618 4.167233 0.422867 -53.397760 -8.431171 5.396634 16.493605 -31.770503 -2.866641 2.887956 -3.745332 -6.227048 26.821462 -0.701467 1.522824 60.850021 0.690451 16.186964 -13.855841 34.378002 -0.190015 2.135933 3.477631 -2.236352 
0.021650 1.206283 1.021674 1.663941 0.274952 87.829119 0.203708 3.701612 1.911065 -3.146670 -1.659682 5.386947 3.605394 9.609179 -11.107995 0.000000 -0.000000 0.000000 -2.089880 -3.439442 0.559497 0.062890 0.856614 8.192354 4.621443 -3.311953 -8.758714 0.000000 -0.000000 0.000000 2.793174 0.069534 7.830357 -0.291188 -1.822162 -0.654444 -1.289556 -1.448941 4.764414 0.922265 3.269525 0.051821 -0.303949 0.736259 7.061109 -29.457669 4.508854 0.710025 -55.202609 -7.791846 6.184670 15.521132 -32.096158 -1.054436 2.554775 -4.180025 -6.105644 26.741298 -0.773277 1.665667 60.328025 0.458357 16.785459 -12.184819 34.602464 1.893322 2.464106 3.532541 -1.476949 
0.026591 1.202856 1.020381 1.599387 0.517290 87.827099 -0.026400 3.491178 2.751104 -2.891532 -1.621223 4.301587 3.683018 9.864038 -11.159667 0.000000 -0.000000 0.000000 -2.459272 -3.713324 1.713591 0.281727 0.873241 6.426995 5.180422 -3.146896 -8.118004 0.000000 -0.000000 0.000000 2.569259 0.394636 6.946548 -0.584677 -1.787821 -0.569246 -1.191633 -1.439097 4.865856 0.968196 3.108608 0.009217 -0.239399 0.962614 6.987223 -30.166143 5.150020 0.483612 -57.471474 -6.999296 6.870222 14.369148 -32.088734 0.135148 2.358859 -4.156958 -5.970271 26.862518 -0.962932 1.787245 59.771447 0.637283 17.207581 -11.533421 34.922699 2.927044 2.743335 3.423612 -0.943361 
0.029217 1.201014 1.019609 1.711155 0.758811 87.694515 -0.031360 3.367132 3.269777 -2.723377 -1.867487 3.853646 3.662228 9.948564 -11.240123 0.000000 -0.000000 0.000000 -2.539353 -3.792387 2.463111 0.413285 0.845936 5.579643 5.470056 -3.070721 -7.889989 0.000000 -0.000000 0.000000 2.491524 0.511902 6.585661 -0.663115 -1.816519 -0.523529 -1.086514 -1.427635 4.861413 1.059280 3.035351 -0.077102 -0.197352 1.087649 6.920491 -30.330796 5.399179 0.368727 -58.921127 -6.686474 7.102639 13.845018 -31.578520 0.460779 2.303561 -4.104831 -6.232197 26.694594 -1.096076 1.751507 59.725530 0.808047 17.322589 -11.510621 34.911393 3.200254 2.837599 3.443150 -1.022477 
0.032947 1.198204 1.018317 1.876033 0.966817 87.496941 -0.186468 3.323179 4.031620 -2.502583 -2.172117 3.183702 3.795820 10.051532 -11.259854 0.000000 -0.000000 0.000000 -2.562182 -3.743387 3.329328 0.283102 0.945454 4.833187 5.662238 -3.161731 -7.850496 0.000000 -0.000000 0.000000 2.368495 0.596414 6.007638 -0.782972 -1.827636 -0.504660 -1.041603 -1.512262 4.892400 1.319837 2.907550 -0.045509 -0.179508 1.283214 7.024693 -30.484790 5.580924 0.472784 -60.252305 -6.235444 7.502100 13.020392 -30.938038 1.412098 1.759885 -4.163539 -6.385850 26.424326 -1.291289 1.577768 59.686034 0.946472 17.442424 -11.453113 34.860254 3.605558 3.327629 3.245194 -1.182185 
0.036799 1.195466 1.017287 2.160962 1.172619 87.205692 -0.154168 3.492283 4.846923 -2.503847 -2.571006 2.549274 3.835967 9.943144 -11.219443 0.000000 -0.000000 0.000000 -2.568214 -3.832202 4.103969 0.155860 0.876081 4.382081 5.736091 -3.254939 -7.772286 0.000000 -0.000000 0.000000 2.270999 0.600955 5.535138 -0.808600 -1.961985 -0.418361 -1.052415 -1.556641 4.813112 1.510545 2.846423 0.192357 -0.051753 1.379781 6.906316 -30.515767 5.426033 0.581397 -60.872407 -5.831003 7.902207 11.525634 -30.294380 3.200183 1.389628 -4.223669 -5.756096 26.120555 -1.318855 1.423509 59.527947 1.016072 17.311338 -11.284973 34.889750 3.929918 3.750039 3.030026 -1.483944 
0.041195 1.193349 1.016411 2.653639 1.235985 87.002228 -0.149497 3.701503 5.395363 -2.729551 -3.049796 2.131358 3.801024 9.553342 -11.189710 0.000000 -0.000000 0.000000 -2.823687 -3.873228 4.603935 0.172290 0.691879 4.284899 5.915298 -3.509354 -7.781247 0.000000 -0.000000 0.000000 2.154037 0.509007 5.114891 -0.896020 -2.066474 -0.435349 -1.119202 -1.674468 4.822933 1.741637 2.769143 0.039885 -0.020475 1.312487 6.893640 -30.450452 5.038542 0.546853 -60.943181 -5.603166 8.477453 10.068211 -29.629116 5.219270 1.637199 -4.531191 -4.231807 25.785554 -1.307571 1.052171 59.335930 1.037325 17.246895 -10.931500 34.709150 4.222748 3.591559 3.243791 -1.678736 
0.045294 1.192008 1.015670 3.190845 1.332134 86.814018 -0.172552 3.711596 5.652221 -2.882914 -3.435156 2.173653 3.906760 9.396317 -11.380157 0.000000 -0.000000 0.000000 -3.001413 -3.903133 4.952664 0.167352 0.458406 4.428013 6.063764 -3.755938 -7.947698 0.000000 -0.000000 0.000000 2.003961 0.486907 4.748027 -0.880273 -2.262428 -0.356085 -1.120609 -1.810163 4.786985 1.875088 2.865777 -0.038402 0.087815 1.321819 6.694253 -30.244079 4.266858 0.654318 -60.509085 -5.679463 8.775921 9.475993 -29.265567 6.287108 1.433838 -4.397948 -3.388265 25.585857 -1.221681 1.005861 59.057695 1.102102 17.042518 -11.126349 34.833837 4.228082 3.585617 3.267994 -1.669511 
